<?xml version="1.0" standalone="no"?>
<!DOCTYPE svg PUBLIC "-//W3C//DTD SVG 20010904//EN"
 "http://www.w3.org/TR/2001/REC-SVG-20010904/DTD/svg10.dtd">
<svg version="1.0" xmlns="http://www.w3.org/2000/svg"
 width="1088.000000pt" height="960.000000pt" viewBox="0 0 1088.000000 960.000000"
 preserveAspectRatio="xMidYMid meet">

<g transform="translate(0.000000,960.000000) scale(0.100000,-0.100000)"
fill="#000000" stroke="none">
<path d="M5280 7831 c-14 -5 -78 -34 -143 -65 -65 -31 -120 -56 -122 -56 -2 0
-43 -18 -90 -40 -47 -22 -89 -40 -93 -40 -4 0 -41 -14 -82 -31 -41 -17 -100
-39 -130 -49 -30 -10 -80 -28 -110 -40 -133 -51 -530 -181 -675 -221 -38 -11
-79 -23 -90 -28 -11 -5 -40 -14 -65 -21 -25 -6 -59 -16 -76 -21 -17 -5 -40 -9
-52 -9 -11 0 -23 -4 -26 -9 -3 -5 -20 -11 -38 -14 -33 -5 -111 -24 -218 -53
-75 -20 -116 -31 -172 -43 -107 -24 -139 -32 -285 -66 -83 -19 -161 -35 -173
-35 -32 0 -90 -28 -116 -55 -13 -14 -27 -42 -31 -63 -10 -48 -10 -840 0 -992
27 -406 49 -572 127 -965 5 -22 11 -58 15 -80 4 -22 10 -49 15 -60 5 -11 11
-33 14 -50 6 -43 23 -107 52 -205 14 -47 32 -107 40 -135 8 -27 18 -59 23 -70
5 -11 16 -45 26 -75 71 -221 311 -723 416 -872 11 -14 19 -29 19 -34 0 -4 11
-22 25 -40 14 -18 25 -35 25 -39 0 -17 210 -302 335 -454 112 -136 395 -416
550 -544 66 -54 129 -106 140 -115 40 -33 251 -189 295 -218 25 -16 47 -32 48
-36 2 -5 7 -8 12 -8 5 0 58 -32 119 -70 60 -39 114 -70 120 -70 5 0 11 -3 13
-8 2 -4 35 -23 73 -42 39 -19 72 -37 75 -41 3 -3 49 -27 103 -54 104 -51 167
-62 218 -39 151 71 231 114 301 160 21 13 40 24 42 24 8 0 184 110 280 175 89
61 417 302 426 314 3 3 36 33 75 66 174 149 364 339 510 510 33 39 62 72 65
75 3 3 18 23 35 45 16 22 31 42 34 45 34 30 251 351 251 370 0 5 5 10 10 10 6
0 10 5 10 10 0 6 11 27 24 48 55 84 216 400 216 422 0 6 5 10 10 10 6 0 10 7
10 15 0 8 4 23 10 33 17 30 80 192 106 271 14 42 29 85 33 96 10 23 28 85 61
215 7 25 16 53 21 62 5 10 9 29 9 42 0 14 5 28 10 31 6 3 10 21 10 40 0 19 4
44 9 57 5 13 14 50 21 83 6 33 18 87 25 120 22 96 48 257 65 390 6 50 15 115
20 145 5 30 12 93 15 140 3 47 10 137 16 200 14 174 23 940 11 1043 -9 80 -13
92 -42 122 -27 28 -48 37 -124 55 -50 11 -107 25 -126 30 -55 13 -169 38 -235
50 -54 9 -507 125 -595 151 -19 6 -50 13 -68 16 -18 3 -35 9 -38 14 -3 5 -16
9 -29 9 -13 0 -34 4 -47 9 -13 5 -63 21 -113 36 -49 15 -99 31 -110 35 -11 4
-114 38 -230 75 -184 60 -246 81 -330 115 -11 5 -81 31 -155 60 -74 28 -144
55 -155 60 -11 5 -55 25 -98 45 -43 19 -80 35 -82 35 -2 0 -47 20 -98 45 -104
49 -139 58 -177 46z m125 -406 c22 -9 69 -30 105 -47 36 -16 74 -33 85 -38 11
-5 56 -23 100 -40 44 -17 91 -36 105 -42 14 -6 34 -14 45 -19 36 -15 269 -100
315 -115 25 -8 53 -19 62 -24 10 -6 26 -10 36 -10 10 0 22 -4 27 -9 6 -4 33
-14 60 -21 28 -7 64 -18 80 -25 17 -7 77 -27 135 -45 58 -17 126 -38 152 -46
26 -8 56 -14 67 -14 11 0 22 -4 25 -9 3 -5 20 -11 38 -14 18 -3 51 -10 73 -17
41 -12 97 -26 220 -55 39 -10 79 -21 90 -25 11 -4 54 -15 95 -24 41 -9 107
-23 145 -32 156 -35 201 -44 227 -44 15 0 30 -4 33 -10 3 -5 17 -10 31 -10
l24 0 0 -157 c2 -597 1 -603 -41 -1038 -18 -187 -46 -383 -69 -500 -6 -27 -17
-86 -25 -130 -8 -44 -19 -96 -24 -115 -6 -19 -15 -57 -22 -85 -13 -59 -18 -76
-60 -215 -29 -99 -35 -116 -58 -172 -5 -13 -17 -45 -27 -73 -9 -27 -28 -74
-41 -103 -12 -29 -23 -55 -23 -58 0 -10 -165 -336 -199 -392 -17 -29 -31 -55
-31 -57 0 -2 -21 -37 -47 -77 -27 -40 -52 -80 -58 -89 -42 -70 -180 -259 -230
-316 -5 -6 -28 -33 -50 -60 -109 -132 -265 -293 -436 -449 -89 -81 -283 -236
-387 -309 -59 -41 -112 -79 -117 -83 -18 -15 -125 -82 -131 -82 -3 0 -31 -17
-62 -38 -88 -60 -299 -172 -322 -172 -14 0 -212 106 -323 174 -232 139 -539
366 -693 511 -241 226 -446 452 -591 650 -58 80 -213 312 -213 320 0 2 -15 28
-33 57 -38 60 -179 339 -221 438 -15 36 -36 83 -45 105 -23 51 -113 317 -141
415 -12 41 -26 85 -31 98 -5 13 -9 34 -9 47 0 13 -4 26 -9 29 -4 3 -11 26 -14
51 -4 24 -15 82 -26 127 -42 181 -86 478 -101 683 -5 66 -14 179 -20 250 -7
76 -10 270 -8 464 l3 334 42 12 c23 7 64 16 90 19 26 4 62 11 78 16 17 4 66
16 110 26 44 9 132 30 195 46 113 29 154 39 228 57 43 11 222 58 270 72 17 5
47 13 65 18 17 5 64 19 102 31 574 185 660 217 1235 460 44 18 72 25 85 20 11
-5 38 -16 60 -25z"/>
<path d="M6850 6433 c-108 -4 -124 -8 -155 -38 -33 -34 -40 -68 -25 -116 14
-42 60 -79 99 -79 11 0 21 -3 21 -7 0 -16 -12 -27 -158 -148 -14 -11 -30 -24
-36 -30 -6 -5 -38 -32 -71 -60 -33 -27 -71 -59 -84 -70 -13 -11 -29 -25 -35
-30 -6 -6 -36 -30 -66 -55 -53 -44 -101 -84 -124 -105 -11 -11 -317 -268 -350
-295 -10 -8 -34 -30 -55 -48 -20 -17 -60 -51 -89 -74 l-53 -41 -101 99 c-56
54 -107 104 -113 109 -10 8 -311 295 -406 386 -60 58 -127 73 -190 42 -19 -9
-110 -89 -204 -178 -93 -89 -208 -197 -255 -241 -47 -43 -132 -124 -190 -180
-58 -55 -136 -129 -174 -165 -82 -76 -72 -66 -260 -244 -328 -310 -354 -337
-361 -378 -21 -114 43 -197 151 -197 53 0 83 18 174 105 105 99 382 361 431
406 109 101 315 295 394 370 49 47 123 117 164 155 41 38 99 93 128 122 30 28
60 52 66 52 7 0 44 -33 83 -73 39 -39 149 -146 243 -237 95 -91 206 -198 248
-238 131 -125 199 -133 313 -35 25 21 65 55 90 74 25 20 56 47 70 60 14 13 48
43 75 66 28 22 100 83 160 134 137 117 135 115 225 189 102 84 115 95 190 159
35 31 78 67 94 81 16 14 34 30 40 35 6 6 34 28 61 50 28 22 75 62 106 90 131
119 151 135 160 135 5 0 9 -39 10 -87 1 -102 16 -138 70 -165 55 -29 109 -21
150 21 24 26 30 49 40 166 5 61 18 180 28 265 31 244 23 251 -261 248 -100 -1
-221 -3 -268 -5z"/>
<path d="M6517 5121 c-60 -39 -57 9 -57 -992 0 -606 3 -919 10 -919 6 0 10 3
10 8 0 4 13 21 29 38 17 18 68 83 115 145 l86 114 0 777 0 777 -35 36 c-31 30
-42 35 -83 35 -29 0 -58 -7 -75 -19z"/>
<path d="M4862 4906 c-13 -7 -32 -26 -43 -42 -18 -28 -19 -59 -19 -1130 l0
-1100 67 -50 c62 -45 170 -114 179 -114 2 0 4 529 4 1175 0 1282 3 1207 -56
1254 -31 24 -96 28 -132 7z"/>
<path d="M5650 4583 c-25 -9 -59 -54 -70 -92 -15 -55 -14 -2031 2 -2031 9 0
127 76 215 139 l22 16 1 954 0 953 -34 34 c-29 29 -41 34 -77 33 -24 0 -51 -3
-59 -6z"/>
<path d="M4193 4423 c-13 -2 -36 -18 -53 -34 l-30 -31 -2 -496 c-1 -273 -2
-511 -2 -529 1 -19 12 -45 29 -65 47 -56 148 -170 185 -207 l35 -36 3 653 c2
709 4 691 -52 727 -26 17 -79 26 -113 18z"/>
</g>
</svg>
